<mxfile host="app.diagrams.net" modified="2020-10-22T09:17:22.193Z" agent="5.0 (Windows NT 10.0; Win64; x64) AppleWebKit/537.36 (KHTML, like Gecko) Chrome/86.0.4240.75 Safari/537.36" etag="2ngPs1RZWOXwNI5Koiq1" version="13.8.1" type="github">
  <diagram id="07fea595-8f29-1299-0266-81d95cde20df" name="Page-1">
    <mxGraphModel dx="2062" dy="1066" grid="1" gridSize="10" guides="1" tooltips="1" connect="1" arrows="1" fold="1" page="1" pageScale="1" pageWidth="1169" pageHeight="827" background="#ffffff" math="0" shadow="0">
      <root>
        <mxCell id="0" />
        <mxCell id="1" parent="0" />
        <mxCell id="JcvGJlWwAxF1H2qJ8KRs-679" style="edgeStyle=orthogonalEdgeStyle;rounded=0;orthogonalLoop=1;jettySize=auto;html=1;entryX=0;entryY=0.428;entryDx=0;entryDy=0;entryPerimeter=0;dashed=1;shape=flexArrow;" edge="1" parent="1" source="JcvGJlWwAxF1H2qJ8KRs-657" target="JcvGJlWwAxF1H2qJ8KRs-659">
          <mxGeometry relative="1" as="geometry">
            <Array as="points">
              <mxPoint x="260" y="380" />
              <mxPoint x="260" y="380" />
            </Array>
          </mxGeometry>
        </mxCell>
        <mxCell id="JcvGJlWwAxF1H2qJ8KRs-657" value="&lt;b&gt;&lt;font face=&quot;Comic Sans MS&quot;&gt;Input Device&lt;br&gt;输入设备&lt;/font&gt;&lt;/b&gt;" style="rounded=1;whiteSpace=wrap;html=1;comic=1;fillColor=#f5f5f5;strokeColor=#666666;fontColor=#333333;" vertex="1" parent="1">
          <mxGeometry x="90" y="340" width="110" height="80" as="geometry" />
        </mxCell>
        <mxCell id="JcvGJlWwAxF1H2qJ8KRs-658" value="&lt;b&gt;&lt;font face=&quot;Comic Sans MS&quot;&gt;Input Device&lt;br&gt;输入设备&lt;/font&gt;&lt;/b&gt;" style="rounded=1;whiteSpace=wrap;html=1;comic=1;fillColor=#f5f5f5;strokeColor=#666666;fontColor=#333333;" vertex="1" parent="1">
          <mxGeometry x="640" y="340" width="110" height="80" as="geometry" />
        </mxCell>
        <mxCell id="JcvGJlWwAxF1H2qJ8KRs-659" value="" style="rounded=1;whiteSpace=wrap;html=1;comic=1;fillColor=#d5e8d4;strokeColor=#82b366;" vertex="1" parent="1">
          <mxGeometry x="280" y="179" width="280" height="470" as="geometry" />
        </mxCell>
        <mxCell id="JcvGJlWwAxF1H2qJ8KRs-660" value="" style="rounded=1;whiteSpace=wrap;html=1;comic=1;" vertex="1" parent="1">
          <mxGeometry x="330" y="260" width="180" height="170" as="geometry" />
        </mxCell>
        <mxCell id="JcvGJlWwAxF1H2qJ8KRs-661" value="" style="rounded=1;whiteSpace=wrap;html=1;comic=1;fillColor=#f8cecc;strokeColor=#b85450;" vertex="1" parent="1">
          <mxGeometry x="360" y="315" width="120" height="45" as="geometry" />
        </mxCell>
        <mxCell id="JcvGJlWwAxF1H2qJ8KRs-662" value="" style="rounded=1;whiteSpace=wrap;html=1;comic=1;fillColor=#f8cecc;strokeColor=#b85450;" vertex="1" parent="1">
          <mxGeometry x="360" y="369" width="120" height="45" as="geometry" />
        </mxCell>
        <mxCell id="JcvGJlWwAxF1H2qJ8KRs-663" value="" style="rounded=1;whiteSpace=wrap;html=1;comic=1;fillColor=#dae8fc;strokeColor=#6c8ebf;" vertex="1" parent="1">
          <mxGeometry x="330" y="460" width="180" height="140" as="geometry" />
        </mxCell>
        <mxCell id="JcvGJlWwAxF1H2qJ8KRs-664" value="&lt;b&gt;&lt;font face=&quot;Comic Sans MS&quot;&gt;Central&amp;nbsp; Processing Unit&lt;br&gt;（CPU）&lt;/font&gt;&lt;/b&gt;" style="text;html=1;strokeColor=none;fillColor=none;align=center;verticalAlign=middle;whiteSpace=wrap;rounded=0;comic=1;" vertex="1" parent="1">
          <mxGeometry x="320" y="280" width="200" height="20" as="geometry" />
        </mxCell>
        <mxCell id="JcvGJlWwAxF1H2qJ8KRs-665" value="&lt;b&gt;&lt;font face=&quot;Comic Sans MS&quot;&gt;Control Unit&lt;br&gt;控制器&lt;br&gt;&lt;/font&gt;&lt;/b&gt;" style="text;html=1;strokeColor=none;fillColor=none;align=center;verticalAlign=middle;whiteSpace=wrap;rounded=0;comic=1;" vertex="1" parent="1">
          <mxGeometry x="365" y="327.5" width="110" height="20" as="geometry" />
        </mxCell>
        <mxCell id="JcvGJlWwAxF1H2qJ8KRs-666" value="&lt;b&gt;&lt;font face=&quot;Comic Sans MS&quot;&gt;Arithmetic Unit&lt;br&gt;运算器&lt;br&gt;&lt;/font&gt;&lt;/b&gt;" style="text;html=1;strokeColor=none;fillColor=none;align=center;verticalAlign=middle;whiteSpace=wrap;rounded=0;comic=1;" vertex="1" parent="1">
          <mxGeometry x="360" y="381.5" width="110" height="20" as="geometry" />
        </mxCell>
        <mxCell id="JcvGJlWwAxF1H2qJ8KRs-667" value="&lt;b&gt;&lt;font face=&quot;Comic Sans MS&quot;&gt;Memory Unit&lt;br&gt;存储器&lt;br&gt;&lt;/font&gt;&lt;/b&gt;" style="text;html=1;strokeColor=none;fillColor=none;align=center;verticalAlign=middle;whiteSpace=wrap;rounded=0;comic=1;" vertex="1" parent="1">
          <mxGeometry x="365" y="520" width="110" height="20" as="geometry" />
        </mxCell>
        <mxCell id="JcvGJlWwAxF1H2qJ8KRs-674" value="" style="endArrow=classic;html=1;dashed=1;" edge="1" parent="1">
          <mxGeometry width="50" height="50" relative="1" as="geometry">
            <mxPoint x="390" y="430" as="sourcePoint" />
            <mxPoint x="390" y="460" as="targetPoint" />
          </mxGeometry>
        </mxCell>
        <mxCell id="JcvGJlWwAxF1H2qJ8KRs-676" value="" style="endArrow=classic;html=1;dashed=1;exitX=0.75;exitY=0;exitDx=0;exitDy=0;entryX=0.75;entryY=1;entryDx=0;entryDy=0;" edge="1" parent="1" source="JcvGJlWwAxF1H2qJ8KRs-663" target="JcvGJlWwAxF1H2qJ8KRs-660">
          <mxGeometry width="50" height="50" relative="1" as="geometry">
            <mxPoint x="400" y="440" as="sourcePoint" />
            <mxPoint x="400" y="470" as="targetPoint" />
          </mxGeometry>
        </mxCell>
        <mxCell id="JcvGJlWwAxF1H2qJ8KRs-680" style="edgeStyle=orthogonalEdgeStyle;rounded=0;orthogonalLoop=1;jettySize=auto;html=1;entryX=0;entryY=0.428;entryDx=0;entryDy=0;entryPerimeter=0;dashed=1;shape=flexArrow;" edge="1" parent="1">
          <mxGeometry relative="1" as="geometry">
            <mxPoint x="560" y="391" as="sourcePoint" />
            <mxPoint x="640" y="391.1600000000001" as="targetPoint" />
            <Array as="points">
              <mxPoint x="620" y="391" />
              <mxPoint x="620" y="391" />
            </Array>
          </mxGeometry>
        </mxCell>
      </root>
    </mxGraphModel>
  </diagram>
</mxfile>
